<?xml version="1.0" encoding="utf-8"?>
<!-- Generator: Adobe Illustrator 16.0.3, SVG Export Plug-In . SVG Version: 6.00 Build 0)  -->
<!DOCTYPE svg PUBLIC "-//W3C//DTD SVG 1.1//EN" "http://www.w3.org/Graphics/SVG/1.1/DTD/svg11.dtd">
<svg version="1.1" id="Layer_1" xmlns="http://www.w3.org/2000/svg" xmlns:xlink="http://www.w3.org/1999/xlink" x="0px" y="0px"
	 width="170px" height="170px" viewBox="0 0 170 170" style="enable-background:new 0 0 170 170;" xml:space="preserve">
<style type="text/css">
<![CDATA[
	.st0{fill:#2980B9;}
]]>
</style>
<path class="st0" d="M58,63.136c-3.313,0-6,2.687-6,6v34c0,3.313,2.687,6,6,6s6-2.687,6-6v-34C64,65.822,61.313,63.136,58,63.136z"
	/>
<path class="st0" d="M109,109.136c3.313,0,6-2.687,6-6v-34c0-3.313-2.687-6-6-6s-6,2.687-6,6v34
	C103,106.449,105.687,109.136,109,109.136z"/>
<path class="st0" d="M85,0C38.059,0,0,38.056,0,85s38.059,85,85,85s85-38.056,85-85S131.941,0,85,0z M135,66.136h-4v44h4v15H34v-15
	h4v-44h-4V49.944l50.5-14.787L135,49.944V66.136z"/>
<path class="st0" d="M78,69.136v34c0,3.313,2.687,6,6,6s6-2.687,6-6v-34c0-3.313-2.687-6-6-6S78,65.822,78,69.136z"/>
</svg>
