<?xml version="1.0" encoding="utf-8"?>
<!-- Generator: Adobe Illustrator 16.0.3, SVG Export Plug-In . SVG Version: 6.00 Build 0)  -->
<!DOCTYPE svg PUBLIC "-//W3C//DTD SVG 1.1//EN" "http://www.w3.org/Graphics/SVG/1.1/DTD/svg11.dtd">
<svg version="1.1" id="Layer_1" xmlns="http://www.w3.org/2000/svg" xmlns:xlink="http://www.w3.org/1999/xlink" x="0px" y="0px"
	 width="131.393px" height="168.329px" viewBox="0 0 131.393 168.329" enable-background="new 0 0 131.393 168.329"
	 xml:space="preserve">
<g id="unity">
	<path fill="#3498DB" d="M23.616,84.164c0-31.15,16.926-58.349,42.08-72.901C53.317,4.102,38.943,0,23.612,0
		c-46.483,0-9.996,37.682-9.996,84.164s-36.487,84.165,9.996,84.165c15.331,0,29.705-4.101,42.084-11.264
		C40.542,142.513,23.616,115.315,23.616,84.164z"/>
	<path fill="#2980B9" d="M107.78,0C92.449,0,78.078,4.102,65.696,11.263c25.154,14.553,42.08,41.751,42.08,72.901
		c0,31.151-16.926,58.349-42.08,72.901c12.382,7.163,26.753,11.264,42.084,11.264c46.483,0,9.996-37.683,9.996-84.165
		S154.264,0,107.78,0z"/>
</g>
</svg>
