<?xml version="1.0" encoding="utf-8"?>
<!-- Generator: Adobe Illustrator 16.0.3, SVG Export Plug-In . SVG Version: 6.00 Build 0)  -->
<!DOCTYPE svg PUBLIC "-//W3C//DTD SVG 1.1//EN" "http://www.w3.org/Graphics/SVG/1.1/DTD/svg11.dtd">
<svg version="1.1" id="Layer_1" xmlns="http://www.w3.org/2000/svg" xmlns:xlink="http://www.w3.org/1999/xlink" x="0px" y="0px"
	 width="252.498px" height="168.329px" viewBox="0 0 252.498 168.329" enable-background="new 0 0 252.498 168.329"
	 xml:space="preserve">
<g id="unity">
	<path fill="#3498DB" d="M84.169,84.164c0-31.15,16.926-58.349,42.08-72.901C113.87,4.102,99.496,0,84.165,0
		C37.682,0,0,37.682,0,84.164s37.682,84.165,84.165,84.165c15.331,0,29.705-4.101,42.084-11.264
		C101.095,142.513,84.169,115.315,84.169,84.164z"/>
	<path fill="#2980B9" d="M168.333,0c-15.331,0-29.702,4.102-42.084,11.263c25.154,14.553,42.08,41.751,42.08,72.901
		c0,31.151-16.926,58.349-42.08,72.901c12.382,7.163,26.753,11.264,42.084,11.264c46.483,0,84.165-37.683,84.165-84.165
		S214.816,0,168.333,0z"/>
</g>
</svg>
